<?xml version="1.0" encoding="UTF-8" standalone="no"?>
<!DOCTYPE svg PUBLIC "-//W3C//DTD SVG 1.1//EN" "http://www.w3.org/Graphics/SVG/1.1/DTD/svg11.dtd">
<svg version="1.1" xmlns="http://www.w3.org/2000/svg" xmlns:xlink="http://www.w3.org/1999/xlink" preserveAspectRatio="xMidYMid meet" viewBox="0 0 200 264" width="200" height="264"><defs><path d="M155.42 76.92L155.29 76.83L151.81 74.76L148.24 72.82L144.58 71.01L140.85 69.35L137.05 67.82L133.17 66.45L129.23 65.22L125.22 64.14L121.15 63.22L117.02 62.46L112.84 61.87L108.61 61.44L104.33 61.18L100 61.09L95.67 61.18L91.39 61.44L87.16 61.87L82.98 62.46L78.85 63.22L74.78 64.14L70.77 65.22L66.83 66.45L62.95 67.82L59.15 69.35L55.42 71.01L51.76 72.82L48.19 74.76L44.71 76.83L44.58 76.92L71.5 39.55L100 0L128.5 39.55L155.42 76.92Z" id="agZS7YVkx"></path><clipPath id="clipbhMeJWmx9"><use xlink:href="#agZS7YVkx" opacity="1"></use></clipPath><path d="M200 164C200 219.19 155.19 264 100 264C44.81 264 0 219.19 0 164C0 108.81 44.81 64 100 64C155.19 64 200 108.81 200 164Z" id="c2AOSaz7y"></path><clipPath id="clipabNvXdlgCk"><use xlink:href="#c2AOSaz7y" opacity="1"></use></clipPath><path d="M175 164.52C175 205.91 141.39 239.52 100 239.52C58.61 239.52 25 205.91 25 164.52C25 123.12 58.61 89.52 100 89.52C141.39 89.52 175 123.12 175 164.52Z" id="bw6PWQGa9"></path></defs><g><g><g><use xlink:href="#agZS7YVkx" opacity="1" fill="#d21b00" fill-opacity="0.99"></use><g clip-path="url(#clipbhMeJWmx9)"><use xlink:href="#agZS7YVkx" opacity="1" fill-opacity="0" stroke="#000000" stroke-width="10" stroke-opacity="1"></use></g></g><g><use xlink:href="#c2AOSaz7y" opacity="1" fill="#d21b00" fill-opacity="0.99"></use><g clip-path="url(#clipabNvXdlgCk)"><use xlink:href="#c2AOSaz7y" opacity="1" fill-opacity="0" stroke="#000000" stroke-width="10" stroke-opacity="1"></use></g></g><g><use xlink:href="#bw6PWQGa9" opacity="1" fill="#ffffff" fill-opacity="0.99"></use><g><use xlink:href="#bw6PWQGa9" opacity="1" fill-opacity="0" stroke="#000000" stroke-width="5" stroke-opacity="1"></use></g></g></g></g></svg>